
<svg width="25px" height="25px" viewBox="0 0 25 25" version="1.1" xmlns="http://www.w3.org/2000/svg" xmlns:xlink="http://www.w3.org/1999/xlink">
    <defs>
        <rect id="path-1" x="0" y="0" width="24" height="24" rx="6"></rect>
        <linearGradient x1="50%" y1="0%" x2="50%" y2="97.0714415%" id="linearGradient-3">
            <stop stop-color="#3F4549" offset="0%"></stop>
            <stop stop-color="#0F1315" offset="100%"></stop>
        </linearGradient>
        <rect id="path-4" x="0" y="0" width="24" height="24" rx="6"></rect>
    </defs>
    <g id="Preview" stroke="none" stroke-width="1" fill="none" fill-rule="evenodd">
        <g id="About-this-app-Preview" transform="translate(-572.000000, -231.000000)">
            <g id="About-this-app-preview">
                <g id="About-Group">
                    <g id="Symbol" transform="translate(392.812500, 201.701183)">
                        <g id="Icon-Artboard" transform="translate(179.937500, 29.955621)">
                            <mask id="mask-2" fill="white">
                                <use xlink:href="#path-1"></use>
                            </mask>
                            <g id="Mask"></g>
                            <g mask="url(#mask-2)">
                                <g id="BG-style-/-Dark-grey" fill="url(#linearGradient-3)">
                                    <rect id="BG" x="0" y="0" width="24" height="24"></rect>
                                </g>
                                <g id="Guides-(-Hide-before-export-)" stroke-width="1" fill="#FFFFFF" opacity="0.489006696">
                                    <g id="Guides-group">
                                        <polygon id="Vertical-grid-line" opacity="0.197879464" points="5.90625 0.0703125 6.40625 0.0703125 6.40625 24.0703125 5.90625 24.0703125"></polygon>
                                        <polygon id="Vertical-grid-line" opacity="0.197879464" points="3.421875 0.0703125 3.921875 0.0703125 3.921875 24.0703125 3.421875 24.0703125"></polygon>
                                        <polygon id="Vertical-grid-line" opacity="0.197879464" points="8.390625 0.0703125 8.890625 0.0703125 8.890625 24.0703125 8.390625 24.0703125"></polygon>
                                        <polygon id="Vertical-grid-line" opacity="0.197879464" points="10.875 0.0703125 11.375 0.0703125 11.375 24.0703125 10.875 24.0703125"></polygon>
                                        <polygon id="Vertical-grid-line" opacity="0.197879464" points="17.90625 0.0703125 18.40625 0.0703125 18.40625 24.0703125 17.90625 24.0703125"></polygon>
                                        <polygon id="Vertical-grid-line" opacity="0.197879464" points="20.4140625 0.0703125 20.9140625 0.0703125 20.9140625 24.0703125 20.4140625 24.0703125"></polygon>
                                        <polygon id="Vertical-grid-line" opacity="0.197879464" points="15.3984375 0.0703125 15.8984375 0.0703125 15.8984375 24.0703125 15.3984375 24.0703125"></polygon>
                                        <polygon id="Vertical-grid-line" opacity="0.197879464" points="12.890625 0.0703125 13.390625 0.0703125 13.390625 24.0703125 12.890625 24.0703125"></polygon>
                                        <polygon id="Horizontal-grid-line" opacity="0.197879464" points="24.0234375 17.953125 24.0234375 18.453125 0.0234375 18.453125 0.0234375 17.953125"></polygon>
                                        <polygon id="Horizontal-grid-line" opacity="0.197879464" points="24.0234375 20.3671875 24.0234375 20.8671875 0.0234375 20.8671875 0.0234375 20.3671875"></polygon>
                                        <polygon id="Horizontal-grid-line" opacity="0.197879464" points="24.0234375 15.5390625 24.0234375 16.0390625 0.0234375 16.0390625 0.0234375 15.5390625"></polygon>
                                        <polygon id="Horizontal-grid-line" opacity="0.197879464" points="24.0234375 13.125 24.0234375 13.625 0.0234375 13.625 0.0234375 13.125"></polygon>
                                        <polygon id="Horizontal-grid-line" opacity="0.197879464" points="24.0234375 5.953125 24.0234375 6.453125 0.0234375 6.453125 0.0234375 5.953125"></polygon>
                                        <polygon id="Horizontal-grid-line" opacity="0.197879464" points="24.0234375 3.46875 24.0234375 3.96875 0.0234375 3.96875 0.0234375 3.46875"></polygon>
                                        <polygon id="Horizontal-grid-line" opacity="0.197879464" points="24.0234375 8.4375 24.0234375 8.9375 0.0234375 8.9375 0.0234375 8.4375"></polygon>
                                        <polygon id="Horizontal-grid-line" opacity="0.197879464" points="24.0234375 10.921875 24.0234375 11.421875 0.0234375 11.421875 0.0234375 10.921875"></polygon>
                                        <polygon id="Cross-grid-line" opacity="0.197879464" points="23.9910123 0.0108859241 24.1567405 0.176614076 0.178438796 24.1549158 0.0127106442 23.9891876"></polygon>
                                        <polygon id="Cross-grid-line" opacity="0.197879464" points="0.0234375 0.236040652 0.189165652 0.0703125 24.1674674 24.0486142 24.0017392 24.2143424"></polygon>
                                        <path d="M12.0351562,20.6953125 C7.27817237,20.6953125 3.421875,16.8390151 3.421875,12.0820312 C3.421875,7.32504737 7.27817237,3.46875 12.0351562,3.46875 C16.7921401,3.46875 20.6484375,7.32504737 20.6484375,12.0820312 C20.6484375,16.8390151 16.7921401,20.6953125 12.0351562,20.6953125 Z M12.0351562,20.4609375 C16.6626984,20.4609375 20.4140625,16.7095734 20.4140625,12.0820312 C20.4140625,7.45448911 16.6626984,3.703125 12.0351562,3.703125 C7.40761411,3.703125 3.65625,7.45448911 3.65625,12.0820312 C3.65625,16.7095734 7.40761411,20.4609375 12.0351562,20.4609375 Z" id="Oval-grid-1" fill-rule="nonzero"></path>
                                        <path d="M12.0351562,19.1015625 C8.15837619,19.1015625 5.015625,15.9588113 5.015625,12.0820312 C5.015625,8.20525119 8.15837619,5.0625 12.0351562,5.0625 C15.9119363,5.0625 19.0546875,8.20525119 19.0546875,12.0820312 C19.0546875,15.9588113 15.9119363,19.1015625 12.0351562,19.1015625 Z M12.0351562,18.8671875 C15.7824946,18.8671875 18.8203125,15.8293696 18.8203125,12.0820312 C18.8203125,8.33469293 15.7824946,5.296875 12.0351562,5.296875 C8.28781793,5.296875 5.25,8.33469293 5.25,12.0820312 C5.25,15.8293696 8.28781793,18.8671875 12.0351562,18.8671875 Z" id="Oval-grid-2" fill-rule="nonzero" opacity="0.462296196"></path>
                                        <path d="M12.0703125,17.2265625 C9.24848261,17.2265625 6.9609375,14.9390174 6.9609375,12.1171875 C6.9609375,9.29535761 9.24848261,7.0078125 12.0703125,7.0078125 C14.8921424,7.0078125 17.1796875,9.29535761 17.1796875,12.1171875 C17.1796875,14.9390174 14.8921424,17.2265625 12.0703125,17.2265625 Z M12.0703125,16.9921875 C14.7627007,16.9921875 16.9453125,14.8095757 16.9453125,12.1171875 C16.9453125,9.42479934 14.7627007,7.2421875 12.0703125,7.2421875 C9.37792434,7.2421875 7.1953125,9.42479934 7.1953125,12.1171875 C7.1953125,14.8095757 9.37792434,16.9921875 12.0703125,16.9921875 Z" id="Oval-grid-3" fill-rule="nonzero" opacity="0.462296196"></path>
                                        <path d="M6.2578125,6.3046875 L6.2578125,17.8359375 L17.7890625,17.8359375 L17.7890625,6.3046875 L6.2578125,6.3046875 Z M6.0234375,6.0703125 L18.0234375,6.0703125 L18.0234375,18.0703125 L6.0234375,18.0703125 L6.0234375,6.0703125 Z" id="Rectangle" fill-rule="nonzero"></path>
                                    </g>
                                </g>
                                <polygon fill="#FFFFFF" points="11.9983845 16.3265667 6.98751355 18.9609375 7.94450475 13.3812507 3.890625 9.42969458 9.49294902 8.61562925 11.9983845 3.5390625 14.50382 8.61562925 20.106144 9.42969458 16.0522642 13.3812507 17.0092554 18.9609375"></polygon>
                            </g>
                            <mask id="mask-5" fill="white">
                                <use xlink:href="#path-4"></use>
                            </mask>
                            <rect stroke-opacity="0.2" stroke="#000000" x="0.5" y="0.5" width="23" height="23" rx="6"></rect>
                        </g>
                    </g>
                </g>
            </g>
        </g>
    </g>
</svg>