
<svg width="32px" height="33px" viewBox="0 0 32 33" version="1.1" xmlns="http://www.w3.org/2000/svg" xmlns:xlink="http://www.w3.org/1999/xlink">
    <!-- Generator: Sketch 50.2 (55047) - http://www.bohemiancoding.com/sketch -->
    <desc>Created with Sketch.</desc>
    <defs>
        <filter x="-0.6%" y="-0.7%" width="101.2%" height="102.1%" filterUnits="objectBoundingBox" id="filter-1">
            <feOffset dx="0" dy="2" in="SourceAlpha" result="shadowOffsetOuter1"></feOffset>
            <feGaussianBlur stdDeviation="2" in="shadowOffsetOuter1" result="shadowBlurOuter1"></feGaussianBlur>
            <feColorMatrix values="0 0 0 0 0   0 0 0 0 0   0 0 0 0 0  0 0 0 0.5 0" type="matrix" in="shadowBlurOuter1" result="shadowMatrixOuter1"></feColorMatrix>
            <feMerge>
                <feMergeNode in="shadowMatrixOuter1"></feMergeNode>
                <feMergeNode in="SourceGraphic"></feMergeNode>
            </feMerge>
        </filter>
        <rect id="path-2" x="0" y="0" width="24" height="24" rx="6"></rect>
        <linearGradient x1="50%" y1="0%" x2="50%" y2="97.0714415%" id="linearGradient-4">
            <stop stop-color="#3F4549" offset="0%"></stop>
            <stop stop-color="#0F1315" offset="100%"></stop>
        </linearGradient>
        <rect id="path-5" x="0" y="0" width="24" height="24" rx="6"></rect>
    </defs>
    <g id="Preview" stroke="none" stroke-width="1" fill="none" fill-rule="evenodd">
        <g id="About-this-app-Preview" transform="translate(-569.000000, -229.000000)">
            <g id="About-this-app-preview" filter="url(#filter-1)">
                <g id="About-Group">
                    <g id="Symbol" transform="translate(392.812500, 201.701183)">
                        <g id="Icon-Artboard" transform="translate(179.937500, 29.955621)">
                            <mask id="mask-3" fill="white">
                                <use xlink:href="#path-2"></use>
                            </mask>
                            <g id="Mask"></g>
                            <g mask="url(#mask-3)">
                                <g id="BG-style-/-Dark-grey" fill="url(#linearGradient-4)">
                                    <rect id="BG" x="0" y="0" width="1024" height="1024"></rect>
                                </g>
                                <g id="Guides-(-Hide-before-export-)" stroke-width="1" fill="#FFFFFF" opacity="0.489006696">
                                    <g id="Guides-group">
                                        <polygon id="Vertical-grid-line" opacity="0.197879464" points="252 3 262 3 262 1027 252 1027"></polygon>
                                        <polygon id="Vertical-grid-line" opacity="0.197879464" points="146 3 156 3 156 1027 146 1027"></polygon>
                                        <polygon id="Vertical-grid-line" opacity="0.197879464" points="358 3 368 3 368 1027 358 1027"></polygon>
                                        <polygon id="Vertical-grid-line" opacity="0.197879464" points="464 3 474 3 474 1027 464 1027"></polygon>
                                        <polygon id="Vertical-grid-line" opacity="0.197879464" points="764 3 774 3 774 1027 764 1027"></polygon>
                                        <polygon id="Vertical-grid-line" opacity="0.197879464" points="871 3 881 3 881 1027 871 1027"></polygon>
                                        <polygon id="Vertical-grid-line" opacity="0.197879464" points="657 3 667 3 667 1027 657 1027"></polygon>
                                        <polygon id="Vertical-grid-line" opacity="0.197879464" points="550 3 560 3 560 1027 550 1027"></polygon>
                                        <polygon id="Horizontal-grid-line" opacity="0.197879464" points="1025 766 1025 776 1 776 1 766"></polygon>
                                        <polygon id="Horizontal-grid-line" opacity="0.197879464" points="1025 869 1025 879 1 879 1 869"></polygon>
                                        <polygon id="Horizontal-grid-line" opacity="0.197879464" points="1025 663 1025 673 1 673 1 663"></polygon>
                                        <polygon id="Horizontal-grid-line" opacity="0.197879464" points="1025 560 1025 570 1 570 1 560"></polygon>
                                        <polygon id="Horizontal-grid-line" opacity="0.197879464" points="1025 254 1025 264 1 264 1 254"></polygon>
                                        <polygon id="Horizontal-grid-line" opacity="0.197879464" points="1025 148 1025 158 1 158 1 148"></polygon>
                                        <polygon id="Horizontal-grid-line" opacity="0.197879464" points="1025 360 1025 370 1 370 1 360"></polygon>
                                        <polygon id="Horizontal-grid-line" opacity="0.197879464" points="1025 466 1025 476 1 476 1 466"></polygon>
                                        <polygon id="Cross-grid-line" opacity="0.197879464" points="1023.61653 0.464466094 1030.68759 7.53553391 7.61338863 1030.60974 0.54232082 1023.53867"></polygon>
                                        <polygon id="Cross-grid-line" opacity="0.197879464" points="1 10.0710678 8.07106781 3 1031.14527 1026.07421 1024.07421 1033.14527"></polygon>
                                        <path d="M513.5,883 C310.535354,883 146,718.464646 146,515.5 C146,312.535354 310.535354,148 513.5,148 C716.464646,148 881,312.535354 881,515.5 C881,718.464646 716.464646,883 513.5,883 Z M513.5,873 C710.941798,873 871,712.941798 871,515.5 C871,318.058202 710.941798,158 513.5,158 C316.058202,158 156,318.058202 156,515.5 C156,712.941798 316.058202,873 513.5,873 Z" id="Oval-grid-1" fill-rule="nonzero"></path>
                                        <path d="M513.5,815 C348.090717,815 214,680.909283 214,515.5 C214,350.090717 348.090717,216 513.5,216 C678.909283,216 813,350.090717 813,515.5 C813,680.909283 678.909283,815 513.5,815 Z M513.5,805 C673.386435,805 803,675.386435 803,515.5 C803,355.613565 673.386435,226 513.5,226 C353.613565,226 224,355.613565 224,515.5 C224,675.386435 353.613565,805 513.5,805 Z" id="Oval-grid-2" fill-rule="nonzero" opacity="0.462296196"></path>
                                        <path d="M515,735 C394.601925,735 297,637.398075 297,517 C297,396.601925 394.601925,299 515,299 C635.398075,299 733,396.601925 733,517 C733,637.398075 635.398075,735 515,735 Z M515,725 C629.875228,725 723,631.875228 723,517 C723,402.124772 629.875228,309 515,309 C400.124772,309 307,402.124772 307,517 C307,631.875228 400.124772,725 515,725 Z" id="Oval-grid-3" fill-rule="nonzero" opacity="0.462296196"></path>
                                        <path d="M267,269 L267,761 L759,761 L759,269 L267,269 Z M257,259 L769,259 L769,771 L257,771 L257,259 Z" id="Rectangle" fill-rule="nonzero"></path>
                                    </g>
                                </g>
                                <polygon id="Dummy-artwork" fill="#FFFFFF" points="511.931072 696.600181 298.133912 809 338.965536 570.933364 166 402.333635 405.032492 367.600181 511.931072 151 618.829652 367.600181 857.862144 402.333635 684.896608 570.933364 725.728232 809"></polygon>
                            </g>
                            <mask id="mask-6" fill="white">
                                <use xlink:href="#path-5"></use>
                            </mask>
                            <rect stroke-opacity="0.2" stroke="#000000" x="0.5" y="0.5" width="23" height="23" rx="6"></rect>
                        </g>
                    </g>
                </g>
            </g>
        </g>
    </g>
</svg>