<?xml version="1.0" encoding="utf-8"?>
<!-- Generator: Adobe Illustrator 23.0.3, SVG Export Plug-In . SVG Version: 6.00 Build 0)  -->
<svg version="1.1" id="Layer_1" xmlns="http://www.w3.org/2000/svg" xmlns:xlink="http://www.w3.org/1999/xlink" x="0px" y="0px"
	 viewBox="0 0 24 24" style="enable-background:new 0 0 24 24;" xml:space="preserve">
<style type="text/css">
	.st0{fill:url(#SVGID_1_);}
	.st1{fill:#FFFFFF;}
	.st2{fill:url(#SVGID_2_);}
	.st3{fill:url(#SVGID_3_);}
	.st4{fill:url(#SVGID_4_);}
	.st5{fill:url(#SVGID_5_);}
</style>
<linearGradient id="SVGID_1_" gradientUnits="userSpaceOnUse" x1="12" y1="0.0281" x2="12" y2="23.9881">
	<stop  offset="0" style="stop-color:#508874"/>
	<stop  offset="1" style="stop-color:#305246"/>
</linearGradient>
<rect class="st0" width="24" height="24"/>
<path class="st1" d="M17.21,11.25H6.79c-0.414,0-0.75,0.336-0.75,0.75s0.336,0.75,0.75,0.75h10.42c0.414,0,0.75-0.336,0.75-0.75
	S17.624,11.25,17.21,11.25z"/>
<path class="st1" d="M8.874,8.061h6.252c0.414,0,0.75-0.336,0.75-0.75s-0.336-0.75-0.75-0.75H8.874c-0.414,0-0.75,0.336-0.75,0.75
	S8.459,8.061,8.874,8.061z"/>
<path class="st1" d="M15.126,15.94H8.874c-0.414,0-0.75,0.336-0.75,0.75s0.336,0.75,0.75,0.75h6.252c0.414,0,0.75-0.336,0.75-0.75
	S15.54,15.94,15.126,15.94z"/>
</svg>
